<svg version="1.1" id="Layer_1" xmlns="http://www.w3.org/2000/svg" xmlns:xlink="http://www.w3.org/1999/xlink" x="0px" y="0px"
	 width="100%" viewBox="0 0 1024 672" enable-background="new 0 0 1024 672" xml:space="preserve">
<path fill="#ff6c2f" opacity="1.000000" stroke="none" 
	d="
M521.725647,245.689606 
	C549.367188,225.297546 578.212219,207.403946 607.330688,189.933212 
	C609.751709,188.480637 612.283691,187.167038 614.884705,186.076401 
	C616.632324,185.343643 618.773804,183.894638 620.457947,185.671112 
	C622.257629,187.569504 620.330322,189.396286 619.404907,191.033539 
	C613.555237,201.382996 605.933044,210.451263 598.216003,219.383133 
	C578.203003,242.546692 557.971741,265.521790 537.803284,288.550842 
	C533.297180,293.696106 528.569580,298.591522 522.302612,301.696381 
	C518.437378,303.611328 514.714600,303.570282 510.802277,301.737579 
	C506.185364,299.574890 502.301178,296.484436 498.882599,292.814331 
	C484.023499,276.862122 469.229126,260.849670 454.410797,244.859467 
	C451.944855,242.198517 452.102753,239.759842 455.235260,237.847519 
	C472.666840,227.205902 484.439606,226.564636 499.434845,237.937622 
	C502.881866,240.552002 506.445557,243.061462 509.599457,246.001282 
	C513.748535,249.868698 517.525513,250.351746 521.725647,245.689606 
z"/>
<path fill="#000000" opacity="1.000000" stroke="none" 
	d="
M591.936401,293.945343 
	C592.819397,292.108429 593.565613,290.619659 594.241516,289.099640 
	C595.968628,285.215942 601.482666,283.231659 605.378357,285.053528 
	C607.065002,285.842346 607.155579,287.312317 607.218018,288.819855 
	C607.458252,294.616730 606.853271,300.437103 608.357361,306.195923 
	C609.040100,308.809906 606.883728,310.889191 605.546875,312.920776 
	C588.683960,338.546509 565.322083,354.694275 535.037964,360.103180 
	C492.711975,367.662872 450.075165,347.852356 427.988403,310.915436 
	C426.407623,308.271759 425.809814,305.941071 426.973633,302.989746 
	C428.416656,299.330414 427.307251,295.388580 427.733612,291.608612 
	C428.013702,289.125671 426.139069,285.328339 430.614655,284.872162 
	C434.627960,284.463135 438.644012,283.718964 440.784058,289.254944 
	C444.659027,299.279053 450.815521,307.964355 458.367157,315.682098 
	C495.075287,353.197784 555.998901,347.879913 585.622375,304.545929 
	C587.881592,301.241211 590.086365,297.921631 591.936401,293.945343 
z"/>
<path fill="#000000" opacity="1.000000" stroke="none" 
	d="
M464.981506,166.890991 
	C514.283813,138.364105 569.336914,157.536499 591.665710,185.160416 
	C586.603699,189.205078 580.779785,192.031174 575.324402,195.389908 
	C573.519653,196.501099 572.252258,194.846497 571.000549,193.794312 
	C553.589783,179.158493 533.545166,172.853958 510.852142,174.209900 
	C477.046173,176.229874 444.833160,203.204285 437.054474,236.285034 
	C436.437347,238.909531 436.428406,242.129974 432.294922,242.161758 
	C429.262451,242.185074 427.588165,241.307907 427.652649,237.926971 
	C427.770233,231.765076 427.680511,225.598984 427.652649,219.434738 
	C427.645905,217.938065 428.039001,216.175613 427.402008,214.990067 
	C424.108185,208.859772 427.293091,204.187424 430.467285,199.418991 
	C439.389282,186.015991 450.926727,175.384888 464.981506,166.890991 
z"/>
<path fill="#000000" opacity="1.000000" stroke="none" 
	d="
M411.764984,308.980347 
	C399.230072,315.101562 389.875305,309.449799 389.858246,296.137695 
	C389.825836,270.820312 389.944794,245.502029 389.756317,220.185913 
	C389.649200,205.794556 399.687469,204.160202 409.788147,206.859253 
	C414.336700,208.074661 416.209961,212.194702 416.227173,216.616272 
	C416.336243,244.597702 416.290833,272.579803 416.251343,300.561615 
	C416.246582,303.928040 414.654388,306.620148 411.764984,308.980347 
z"/>
<path fill="#000000" opacity="1.000000" stroke="none" 
	d="
M618.766724,261.000244 
	C618.732544,246.674866 618.669434,232.849426 618.675476,219.024002 
	C618.679443,210.052856 622.538940,206.078506 631.254761,205.906052 
	C640.581421,205.721512 644.928406,209.607971 645.007141,218.958771 
	C645.172729,238.612976 645.063599,258.269470 645.071106,277.925049 
	C645.073730,284.754517 645.179810,291.585388 645.073608,298.413055 
	C644.935974,307.265289 640.478088,311.153748 630.842896,311.051544 
	C622.964233,310.967926 618.720337,306.653931 618.697327,298.478302 
	C618.662598,286.152435 618.738281,273.826233 618.766724,261.000244 
z"/>
<path fill="#000000" opacity="1.000000" stroke="none" 
	d="
M625.983704,439.422516 
	C625.380981,441.031494 625.158508,442.289642 625.745178,444.016144 
	C631.412964,440.309479 636.082825,435.784149 640.285767,430.991913 
	C645.349609,425.218048 651.096130,422.584839 658.700928,423.721222 
	C661.757446,424.177979 664.958496,423.340210 668.391479,424.455566 
	C667.492249,427.648041 664.779846,428.955750 662.866516,430.780701 
	C657.204163,436.181549 651.457092,441.510620 645.484558,446.562012 
	C642.492554,449.092651 641.978210,451.192596 644.223877,454.541870 
	C648.674561,461.179535 652.785400,468.046509 656.971863,474.858551 
	C657.817017,476.233765 659.117676,477.468567 658.869446,480.012604 
	C654.658264,481.733307 649.956177,480.348511 645.504150,480.972778 
	C639.607361,481.799713 637.878540,477.592163 635.591492,473.676422 
	C631.923706,467.396667 628.051941,461.236084 623.680664,454.064148 
	C621.104431,460.899323 620.774902,467.020081 619.483643,472.886444 
	C617.724854,480.876831 617.928894,480.918518 610.051147,480.947571 
	C598.371094,480.990662 599.654419,481.191467 601.662842,471.130432 
	C606.056885,449.118134 610.458191,427.107147 614.760620,405.076874 
	C615.351746,402.049988 616.903198,401.022156 619.870117,400.862000 
	C633.956299,400.101898 633.972107,400.043976 631.265930,413.639862 
	C629.577759,422.121765 627.821167,430.590057 625.983704,439.422516 
z"/>
<path fill="#000000" opacity="1.000000" stroke="none" 
	d="
M663.732666,457.122620 
	C665.269287,441.318481 672.056213,429.750519 687.314880,424.552490 
	C694.561157,422.083954 702.027649,421.857605 709.467285,423.789612 
	C720.905090,426.759949 725.134216,435.704590 723.805725,446.758759 
	C722.415039,458.330719 721.920227,458.270264 710.425842,458.264954 
	C702.762268,458.261414 695.098450,458.232605 687.435181,458.280945 
	C685.648865,458.292206 683.756104,457.873962 681.867981,459.238708 
	C681.536987,464.019409 684.641479,466.258698 688.628235,467.546051 
	C695.811646,469.865601 702.769470,468.049438 709.669678,465.979462 
	C711.366455,465.470490 712.858459,464.068970 714.820251,464.715881 
	C716.710571,474.168579 713.937378,478.787415 705.137573,480.605316 
	C697.597900,482.162872 690.031128,482.648254 682.360535,481.212036 
	C670.804443,479.048248 664.130188,470.723511 663.732666,457.122620 
M688.225769,439.613800 
	C686.545654,441.373230 684.547485,442.947205 684.537415,445.714203 
	C687.186096,446.464172 701.892700,446.939301 704.295715,446.571136 
	C706.434082,446.243469 706.984009,444.984650 706.923340,443.098877 
	C706.806091,439.455475 704.957458,437.145233 701.437866,436.422241 
	C696.865906,435.483063 692.542053,436.123627 688.225769,439.613800 
z"/>
<path fill="#000000" opacity="1.000000" stroke="none" 
	d="
M521.196045,480.158936 
	C520.371277,478.781921 519.836304,477.616791 519.194580,476.219147 
	C512.850830,480.581268 506.063873,482.908600 498.432312,481.738800 
	C489.228851,480.328033 484.742432,476.628479 483.448883,469.526672 
	C482.167633,462.492432 486.435181,454.101990 493.231079,450.278046 
	C501.825012,445.442413 511.345978,445.228333 520.810059,444.768646 
	C523.360901,444.644745 526.141052,444.961517 525.622681,441.002625 
	C525.262756,438.253479 523.217712,437.205383 520.927246,436.421051 
	C516.121887,434.775665 511.366241,435.949646 506.669952,436.871277 
	C502.801727,437.630371 499.025146,438.856537 495.193420,439.879578 
	C493.580963,431.393372 496.706940,426.316864 504.556274,424.484680 
	C512.227417,422.694092 519.972229,421.824005 527.792603,423.406006 
	C540.486328,425.973816 545.245483,432.492981 543.083984,445.117371 
	C541.290466,455.592834 538.883179,465.962189 536.837341,476.396118 
	C536.280823,479.234528 535.167297,481.006500 531.895691,480.482361 
	C528.440247,479.928802 524.947693,481.375946 521.196045,480.158936 
M504.154724,459.591705 
	C500.245911,463.804321 500.257935,466.883972 504.190643,468.789307 
	C511.485107,472.323242 522.266052,465.247803 522.040100,456.619019 
	C516.058228,455.842133 510.249359,456.148071 504.154724,459.591705 
z"/>
<path fill="#000000" opacity="1.000000" stroke="none" 
	d="
M429.244263,427.099731 
	C425.946686,443.654053 422.569702,459.767242 419.570892,475.950470 
	C418.867249,479.747681 417.203583,481.070282 413.630371,480.937988 
	C410.470642,480.821075 407.302551,480.895050 404.138733,480.931213 
	C400.639740,480.971252 399.590027,479.689606 400.366547,475.999420 
	C404.095947,458.276276 407.386841,440.460205 411.191101,422.753967 
	C412.191925,418.095795 410.622406,417.254639 406.534760,417.300293 
	C400.762299,417.364716 394.951843,417.817017 389.020538,416.948486 
	C388.285248,412.449768 390.057953,408.588165 391.004242,404.626434 
	C391.431122,402.839355 393.103912,402.682770 394.650299,402.682465 
	C414.957336,402.678497 435.264374,402.680603 455.571381,402.714264 
	C456.190369,402.715302 456.808807,403.074371 457.650269,403.335663 
	C457.756836,407.459717 456.351807,411.183319 455.360443,414.979950 
	C454.748383,417.324036 452.877167,417.355072 450.999908,417.360474 
	C446.669891,417.372925 442.311951,417.684174 438.017090,417.298309 
	C432.986023,416.846344 429.943054,418.206177 429.876831,423.752777 
	C429.865143,424.732025 429.503143,425.707123 429.244263,427.099731 
z"/>
<path fill="#000000" opacity="1.000000" stroke="none" 
	d="
M312.959900,412.835327 
	C302.826630,411.394745 299.007751,413.992523 297.944244,422.995728 
	C302.066437,424.818329 306.757812,422.696259 311.070892,424.386230 
	C311.461670,428.412567 310.053345,432.015198 309.185242,435.675598 
	C308.581879,438.219727 306.254547,437.350830 304.579346,437.499695 
	C294.373474,438.406616 294.358887,438.378418 292.373199,448.662811 
	C290.611023,457.789856 288.821960,466.912476 287.166687,476.059082 
	C286.578583,479.308807 285.130554,481.161957 281.582306,481.030212 
	C278.425201,480.913025 275.259247,481.002838 272.097748,481.044647 
	C268.625366,481.090546 267.407410,479.792877 268.211487,476.113892 
	C270.550629,465.411469 272.618225,454.648590 274.702942,443.892120 
	C275.873596,437.851868 275.792938,437.848938 269.767090,437.357635 
	C268.642944,437.265991 267.530670,437.028687 266.290985,436.840027 
	C265.640259,432.835022 267.365265,429.475220 268.170563,426.000519 
	C268.766693,423.428375 271.157562,423.575684 273.104889,423.764252 
	C276.914062,424.133087 278.707672,422.610016 279.716919,418.846252 
	C283.981842,402.940735 299.030060,394.611633 315.083221,398.965759 
	C317.318787,399.572113 318.832092,400.675018 317.885101,403.194153 
	C316.627960,406.538239 317.968292,411.122986 312.959900,412.835327 
z"/>
<path fill="#000000" opacity="1.000000" stroke="none" 
	d="
M382.832947,426.762360 
	C380.543274,437.280426 380.541473,437.444763 370.422272,437.334564 
	C366.487762,437.291748 364.718872,438.662354 364.078064,442.522186 
	C363.126801,448.251831 361.613342,453.885773 360.542389,459.598541 
	C359.364380,465.882111 361.941650,468.274597 368.329468,467.079407 
	C370.258820,466.718414 372.186401,466.347931 374.075775,465.989227 
	C376.363861,474.114288 372.539215,480.024353 364.902405,481.664337 
	C360.295166,482.653687 355.935669,481.958221 351.606323,480.955780 
	C345.223206,479.477753 341.566193,474.500214 341.557098,467.820923 
	C341.546814,460.272552 343.967194,453.103821 345.189117,445.746735 
	C345.590973,443.327423 346.136414,440.931946 346.590881,438.652405 
	C343.653931,436.390900 340.297913,438.302338 337.326508,436.526276 
	C337.177979,433.153046 338.512848,429.914307 339.317230,426.601410 
	C339.972198,423.904053 342.144135,423.531891 344.419708,423.763184 
	C348.391327,424.166840 350.825165,422.949036 350.980347,418.521240 
	C351.178528,412.866577 354.621826,410.543701 359.893005,409.906372 
	C362.973114,409.533997 365.924652,408.168182 369.307831,408.446686 
	C370.403442,411.418518 369.248169,414.136322 368.838318,416.796631 
	C367.778595,423.674713 367.714966,423.711334 374.874695,423.744080 
	C376.537659,423.751678 378.201294,423.755402 379.863281,423.805481 
	C381.519257,423.855377 382.813202,424.387878 382.832947,426.762360 
z"/>
<path fill="#000000" opacity="1.000000" stroke="none" 
	d="
M597.936279,424.824097 
	C602.018311,427.026154 602.718079,436.633759 599.413086,439.462555 
	C598.062134,440.618835 596.923035,439.640869 595.732361,439.188629 
	C591.034058,437.404114 586.314758,435.987885 581.182678,437.216309 
	C570.808838,439.699432 564.351990,449.462402 566.436523,459.864197 
	C567.350891,464.427277 570.162170,467.197388 574.949829,467.679047 
	C580.032837,468.190460 584.904358,467.359711 589.619080,465.433472 
	C591.111572,464.823761 592.512939,463.702332 594.274170,464.285004 
	C596.592529,471.802399 592.931946,478.931946 585.827087,480.636780 
	C578.269226,482.450256 570.701233,482.780640 563.165161,480.379974 
	C553.577393,477.325775 547.911682,470.003723 547.706726,460.013611 
	C547.181335,434.407654 566.941406,419.660889 591.238953,423.168274 
	C593.369019,423.475739 595.440186,424.190582 597.936279,424.824097 
z"/>
<path fill="#000000" opacity="1.000000" stroke="none" 
	d="
M651.654663,283.953491 
	C651.653381,265.631317 651.639771,247.803619 651.660461,229.975952 
	C651.667114,224.277557 652.407654,223.609161 657.959106,223.944717 
	C667.286865,224.508530 673.858215,231.462234 674.077332,241.661011 
	C674.324219,253.151901 674.296997,264.655670 674.071838,276.147614 
	C673.878418,286.021851 667.199951,292.958954 658.119568,293.288574 
	C652.055908,293.508636 651.729309,293.188782 651.661987,286.947174 
	C651.653015,286.114166 651.657410,285.281006 651.654663,283.953491 
z"/>
<path fill="#000000" opacity="1.000000" stroke="none" 
	d="
M383.363403,277.995972 
	C383.358490,281.327881 383.362732,284.160553 383.345734,286.993134 
	C383.307648,293.330750 383.118378,293.513367 376.954041,293.307983 
	C369.632599,293.064056 363.239594,287.787842 361.782593,280.421936 
	C361.206696,277.510498 361.117828,274.463898 361.135559,271.480804 
	C361.199951,260.669891 360.981903,249.832382 361.682739,239.057755 
	C362.288116,229.751099 369.723724,223.852341 378.927002,223.851547 
	C382.390564,223.851242 383.501953,224.994583 383.463806,228.509583 
	C383.286499,244.837067 383.371643,261.167389 383.363403,277.995972 
z"/>
<path fill="#000000" opacity="1.000000" stroke="none" 
	d="
M773.894409,428.739197 
	C773.608765,430.303894 773.396545,431.446655 773.249695,432.597717 
	C772.695068,436.944000 771.863098,439.744019 765.848877,438.725616 
	C758.977295,437.562042 749.239441,442.563446 748.020203,451.823029 
	C746.961487,459.863312 744.777710,467.749298 743.436096,475.761230 
	C742.825256,479.408813 741.191040,480.819153 737.552429,480.960754 
	C724.345398,481.474579 724.239075,481.536652 726.661560,468.739929 
	C729.222290,455.213409 732.091614,441.745422 734.662109,428.220673 
	C735.274597,424.998169 736.789612,423.556458 740.030090,423.779022 
	C741.519592,423.881317 743.037170,423.940430 744.514954,423.775970 
	C748.532593,423.328979 751.395325,424.413757 751.670532,429.727722 
	C756.682983,426.224915 761.415710,423.566101 766.957703,422.919708 
	C771.909668,422.342102 773.895813,423.855682 773.894409,428.739197 
z"/>
<path fill="#000000" opacity="1.000000" stroke="none" 
	d="
M453.677490,480.898499 
	C438.112671,480.975525 440.804291,481.986603 443.219452,468.369141 
	C445.512817,455.438385 448.409729,442.614838 450.721863,429.687073 
	C451.509247,425.284637 453.259705,423.055695 457.902222,423.780365 
	C458.715210,423.907257 459.574951,423.873047 460.397400,423.777740 
	C464.752777,423.272980 468.074493,424.092896 467.499390,430.257446 
	C472.706329,425.967102 477.843109,423.460846 483.844055,423.025024 
	C489.544739,422.610992 491.185913,424.348999 490.158417,429.868500 
	C489.823639,431.666809 489.407501,433.449799 489.057800,435.245514 
	C488.442291,438.406158 486.996552,439.552094 483.457489,438.870117 
	C474.143982,437.075317 466.038025,443.189117 464.337952,452.697205 
	C462.961670,460.394165 461.360168,468.051788 460.052216,475.759735 
	C459.454987,479.279297 457.853577,481.195282 453.677490,480.898499 
z"/>
<path fill="#000000" opacity="1.000000" stroke="none" 
	d="
M334.503906,428.472595 
	C331.362671,444.713318 328.237671,460.525085 325.269836,476.366272 
	C324.672180,479.556427 323.113312,480.993317 319.922455,480.989349 
	C302.844086,480.968079 305.512085,482.593567 308.450867,467.689270 
	C311.053192,454.491302 313.957550,441.351379 316.421509,428.128662 
	C317.044006,424.788147 318.387634,423.544281 321.631378,423.696625 
	C324.786743,423.844849 327.956451,423.781067 331.116943,423.698914 
	C334.286041,423.616486 335.348907,425.072601 334.503906,428.472595 
z"/>
<path fill="#000000" opacity="1.000000" stroke="none" 
	d="
M574.826965,264.855957 
	C580.448425,256.438446 587.273438,251.671341 597.781189,253.279312 
	C602.806519,254.048325 608.080872,253.234985 613.240173,253.068390 
	C616.610840,252.959549 618.116516,254.499786 618.037109,257.866791 
	C617.946777,261.696869 618.053955,265.531158 618.008667,269.362854 
	C617.982727,271.560028 617.368408,273.325928 614.642578,273.323395 
	C599.676636,273.309509 584.710693,273.316772 569.452332,273.316772 
	C569.867249,269.291046 573.173401,267.803772 574.826965,264.855957 
z"/>
<path fill="#000000" opacity="1.000000" stroke="none" 
	d="
M461.888916,273.271881 
	C448.179565,273.351532 434.860199,273.266876 421.544617,273.452087 
	C418.090637,273.500153 416.655487,272.441223 416.826874,268.935028 
	C417.021759,264.948029 416.914062,260.946594 416.952606,256.951538 
	C416.975586,254.569931 417.986725,253.068268 420.578339,253.339188 
	C427.726624,254.086487 434.854675,252.639450 442.029510,253.282333 
	C445.058105,253.553696 447.315216,254.247116 449.359100,256.588440 
	C453.295319,261.097626 457.561279,265.317474 461.604828,269.735718 
	C462.433258,270.640900 464.569000,271.579376 461.888916,273.271881 
z"/>
<path fill="#000000" opacity="1.000000" stroke="none" 
	d="
M335.757294,400.984406 
	C340.751434,405.417755 340.483612,412.607483 335.423950,416.110168 
	C331.607361,418.752258 327.284180,418.927734 322.982971,417.611725 
	C320.123291,416.736786 318.689514,414.403778 318.803131,411.462616 
	C318.972931,407.065887 320.541382,403.240387 324.736908,401.207703 
	C328.151855,399.553223 331.769470,399.239899 335.757294,400.984406 
z"/>
<path fill="#000000" opacity="1.000000" stroke="none" 
	d="
M598.146240,239.972549 
	C598.929749,234.795120 603.094727,232.645721 606.544128,228.202087 
	C607.465759,233.460098 608.698975,237.856033 606.193176,241.095795 
	C604.574951,243.188034 600.727295,242.985825 598.146240,239.972549 
z"/>
</svg>